<?xml version="1.0" standalone="no"?>
<!DOCTYPE svg PUBLIC "-//W3C//DTD SVG 20010904//EN"
 "http://www.w3.org/TR/2001/REC-SVG-20010904/DTD/svg10.dtd">
<svg version="1.0" xmlns="http://www.w3.org/2000/svg"
 width="512.000000pt" height="512.000000pt" viewBox="0 0 512.000000 512.000000"
 preserveAspectRatio="xMidYMid meet">

<g transform="translate(0.000000,512.000000) scale(0.100000,-0.100000)"
fill="#000000" stroke="none">
<path d="M3064 4109 c-22 -11 -44 -48 -44 -73 0 -8 9 -24 19 -37 19 -23 25
-24 204 -29 204 -6 220 -10 259 -77 l18 -29 -73 -50 c-61 -41 -72 -54 -75 -81
-2 -24 56 -369 83 -489 4 -19 -9 -28 -98 -72 -249 -124 -382 -280 -604 -707
-113 -216 -191 -348 -202 -342 -65 35 -130 59 -177 65 l-58 7 -28 135 c-15 74
-27 138 -28 142 0 4 36 26 80 49 114 61 230 152 340 266 52 54 142 148 200
208 106 110 219 202 309 251 60 32 80 68 59 111 -15 31 -54 49 -89 40 -32 -8
-182 -109 -264 -176 -36 -30 -139 -134 -229 -231 -164 -177 -278 -276 -378
-326 -28 -14 -54 -22 -58 -17 -7 7 -130 614 -130 640 0 7 24 14 58 18 160 18
232 84 232 213 0 74 -38 140 -102 174 -40 22 -56 23 -255 26 -173 3 -223 0
-268 -13 -171 -49 -216 -264 -81 -382 49 -44 96 -57 186 -50 l77 5 32 -157 32
-156 -48 -43 c-26 -24 -78 -68 -115 -98 l-66 -55 -89 71 c-412 332 -991 309
-1372 -55 -330 -315 -414 -801 -209 -1209 53 -106 87 -155 172 -244 96 -101
181 -164 301 -223 154 -75 268 -101 445 -102 116 -1 162 4 232 21 305 75 545
256 684 515 l31 58 28 -41 c36 -52 121 -114 186 -135 l49 -17 0 -49 c0 -35 -4
-49 -14 -49 -28 0 -57 -35 -58 -69 -1 -26 6 -40 26 -58 26 -22 35 -23 165 -23
125 0 141 2 165 21 18 14 26 30 26 53 0 54 -20 70 -92 76 l-63 5 -3 45 -3 45
52 19 c108 38 184 105 233 206 26 55 32 79 34 156 3 80 1 100 -22 155 l-26 64
49 75 c66 103 75 118 191 340 132 253 207 365 311 465 75 72 175 140 251 172
l26 12 15 -77 c16 -88 28 -68 -95 -168 -126 -102 -250 -285 -306 -449 -42
-124 -55 -219 -50 -369 6 -176 30 -271 103 -421 142 -290 396 -489 720 -562
47 -11 118 -16 215 -16 124 0 159 4 245 27 178 47 325 128 458 255 136 130
225 271 280 446 116 370 9 779 -274 1050 -216 206 -505 310 -798 286 -75 -6
-86 -9 -108 -35 -27 -32 -25 -66 5 -100 15 -16 28 -18 111 -13 176 9 312 -17
456 -87 540 -260 673 -962 266 -1398 -124 -133 -281 -224 -457 -264 -102 -24
-291 -24 -387 -1 -343 84 -603 352 -674 695 -21 105 -13 307 17 412 29 105 90
223 155 305 55 69 152 161 160 153 3 -2 16 -60 29 -128 39 -195 55 -221 281
-449 172 -174 196 -194 225 -194 38 0 80 40 80 75 0 14 -65 87 -188 212 -124
126 -196 206 -210 236 -14 30 -57 237 -127 607 -58 309 -105 569 -105 577 0 8
27 34 60 56 67 45 80 64 80 113 0 94 -77 205 -172 248 -49 22 -68 24 -233 26
-113 2 -188 -2 -201 -8z m-840 -555 c24 -24 21 -73 -6 -84 -25 -10 -334 -50
-390 -50 -39 0 -63 20 -73 62 -6 22 -1 33 23 58 l30 30 201 0 c168 0 202 -2
215 -16z m-1097 -634 c111 -12 247 -54 337 -104 72 -40 191 -132 191 -147 0
-5 -111 -103 -248 -219 l-247 -209 -37 16 c-25 10 -59 14 -105 11 -82 -4 -137
-38 -183 -113 -26 -41 -30 -58 -30 -114 1 -48 7 -77 22 -107 24 -44 79 -98
112 -109 18 -5 21 -15 21 -60 0 -67 14 -100 49 -115 33 -13 75 0 90 29 6 11
11 46 11 79 0 56 2 60 29 72 17 6 48 30 70 52 l40 41 313 -58 c172 -32 317
-61 321 -65 14 -12 -50 -161 -103 -242 -238 -363 -692 -501 -1091 -333 -157
66 -324 211 -409 354 -179 301 -171 664 21 951 146 218 376 359 638 390 94 11
87 11 188 0z m977 -427 c33 -164 61 -305 63 -313 3 -10 -9 -22 -31 -33 -53
-25 -125 -95 -157 -153 l-29 -50 -337 63 c-185 35 -338 64 -339 66 -1 1 -5 14
-9 29 -6 24 9 40 240 235 135 114 250 209 254 211 10 3 73 -111 101 -183 44
-112 116 -141 156 -63 14 26 14 34 -2 81 -20 61 -75 173 -112 230 l-26 39 44
36 c25 21 61 52 80 69 19 18 37 33 40 33 3 0 32 -134 64 -297z m-1009 -398
c44 -43 21 -124 -40 -139 -55 -14 -114 46 -100 101 16 63 94 85 140 38z m1306
-67 c52 -15 113 -68 138 -121 26 -53 28 -151 5 -205 -24 -58 -104 -132 -144
-132 -6 0 -10 46 -10 130 0 117 -2 132 -20 150 -25 25 -71 26 -101 1 -23 -18
-24 -27 -28 -150 -1 -72 -5 -131 -8 -131 -14 0 -63 33 -90 62 -43 45 -66 102
-66 168 0 169 157 279 324 228z"/>
</g>
</svg>
